<?xml version="1.0" encoding="UTF-8" standalone="no"?>
<!-- Created with Inkscape (http://www.inkscape.org/) -->

<svg
   xmlns:osb="http://www.openswatchbook.org/uri/2009/osb"
   xmlns:dc="http://purl.org/dc/elements/1.1/"
   xmlns:cc="http://creativecommons.org/ns#"
   xmlns:rdf="http://www.w3.org/1999/02/22-rdf-syntax-ns#"
   xmlns:svg="http://www.w3.org/2000/svg"
   xmlns="http://www.w3.org/2000/svg"
   xmlns:sodipodi="http://sodipodi.sourceforge.net/DTD/sodipodi-0.dtd"
   xmlns:inkscape="http://www.inkscape.org/namespaces/inkscape"
   id="svg8"
   version="1.1"
   viewBox="0 0 210 297"
   height="297mm"
   width="210mm"
   inkscape:version="0.92.2 5c3e80d, 2017-08-06"
   sodipodi:docname="migration_scenario.svg"
   inkscape:export-filename="/Users/fmichaud1/Desktop/tutorial-quantiNemo/site/images/migration_scenario.png"
   inkscape:export-xdpi="96"
   inkscape:export-ydpi="96">
  <sodipodi:namedview
     inkscape:snap-global="false"
     inkscape:window-maximized="1"
     inkscape:window-y="1"
     inkscape:window-x="0"
     inkscape:window-height="1395"
     inkscape:window-width="2560"
     inkscape:snap-text-baseline="true"
     inkscape:snap-center="true"
     inkscape:snap-object-midpoints="true"
     inkscape:object-paths="true"
     inkscape:snap-intersection-paths="false"
     inkscape:snap-smooth-nodes="true"
     inkscape:snap-bbox-midpoints="true"
     inkscape:snap-bbox-edge-midpoints="false"
     inkscape:bbox-nodes="false"
     inkscape:bbox-paths="false"
     inkscape:snap-bbox="true"
     showgrid="false"
     inkscape:current-layer="layer1"
     inkscape:document-units="mm"
     inkscape:cy="759.40427"
     inkscape:cx="419.26484"
     inkscape:zoom="1.4"
     inkscape:pageshadow="2"
     inkscape:pageopacity="0.0"
     borderopacity="1.0"
     bordercolor="#666666"
     pagecolor="#ffffff"
     id="base" />
  <defs
     id="defs2">
    <linearGradient
       id="linearGradient23359"
       osb:paint="solid">
      <stop
         style="stop-color:#2b5d0a;stop-opacity:1;"
         offset="0"
         id="stop23357" />
    </linearGradient>
    <marker
       inkscape:stockid="Arrow1Mend"
       orient="auto"
       refY="0.0"
       refX="0.0"
       id="marker21806"
       style="overflow:visible;"
       inkscape:isstock="true">
      <path
         id="path21804"
         d="M 0.0,0.0 L 5.0,-5.0 L -12.5,0.0 L 5.0,5.0 L 0.0,0.0 z "
         style="fill-rule:evenodd;stroke:#000000;stroke-width:1pt;stroke-opacity:1;fill:#000000;fill-opacity:1"
         transform="scale(0.4) rotate(180) translate(10,0)" />
    </marker>
    <marker
       inkscape:isstock="true"
       style="overflow:visible;"
       id="marker21750"
       refX="0.0"
       refY="0.0"
       orient="auto"
       inkscape:stockid="Arrow1Lend">
      <path
         transform="scale(0.8) rotate(180) translate(12.5,0)"
         style="fill-rule:evenodd;stroke:#000000;stroke-width:1pt;stroke-opacity:1;fill:#000000;fill-opacity:1"
         d="M 0.0,0.0 L 5.0,-5.0 L -12.5,0.0 L 5.0,5.0 L 0.0,0.0 z "
         id="path21748" />
    </marker>
    <marker
       inkscape:stockid="Arrow1Mend"
       orient="auto"
       refY="0.0"
       refX="0.0"
       id="marker21654"
       style="overflow:visible;"
       inkscape:isstock="true">
      <path
         id="path21652"
         d="M 0.0,0.0 L 5.0,-5.0 L -12.5,0.0 L 5.0,5.0 L 0.0,0.0 z "
         style="fill-rule:evenodd;stroke:#2b5d0a;stroke-width:1pt;stroke-opacity:1;fill:#2b5d0a;fill-opacity:1"
         transform="scale(0.4) rotate(180) translate(10,0)" />
    </marker>
    <marker
       inkscape:isstock="true"
       style="overflow:visible"
       id="marker21590"
       refX="0.0"
       refY="0.0"
       orient="auto"
       inkscape:stockid="Arrow1Lstart">
      <path
         transform="scale(0.8) translate(12.5,0)"
         style="fill-rule:evenodd;stroke:#2b5d0a;stroke-width:1pt;stroke-opacity:1;fill:#2b5d0a;fill-opacity:1"
         d="M 0.0,0.0 L 5.0,-5.0 L -12.5,0.0 L 5.0,5.0 L 0.0,0.0 z "
         id="path21588" />
    </marker>
    <marker
       inkscape:isstock="true"
       style="overflow:visible;"
       id="marker15223"
       refX="0.0"
       refY="0.0"
       orient="auto"
       inkscape:stockid="Arrow1Mend">
      <path
         transform="scale(0.4) rotate(180) translate(10,0)"
         style="fill-rule:evenodd;stroke:#000000;stroke-width:1pt;stroke-opacity:1;fill:#000000;fill-opacity:1"
         d="M 0.0,0.0 L 5.0,-5.0 L -12.5,0.0 L 5.0,5.0 L 0.0,0.0 z "
         id="path15221" />
    </marker>
    <marker
       inkscape:isstock="true"
       style="overflow:visible;"
       id="marker15177"
       refX="0.0"
       refY="0.0"
       orient="auto"
       inkscape:stockid="Arrow1Mend"
       inkscape:collect="always">
      <path
         transform="scale(0.4) rotate(180) translate(10,0)"
         style="fill-rule:evenodd;stroke:#000000;stroke-width:1pt;stroke-opacity:1;fill:#000000;fill-opacity:1"
         d="M 0.0,0.0 L 5.0,-5.0 L -12.5,0.0 L 5.0,5.0 L 0.0,0.0 z "
         id="path15175" />
    </marker>
    <marker
       inkscape:isstock="true"
       style="overflow:visible;"
       id="marker15167"
       refX="0.0"
       refY="0.0"
       orient="auto"
       inkscape:stockid="Arrow1Mend">
      <path
         transform="scale(0.4) rotate(180) translate(10,0)"
         style="fill-rule:evenodd;stroke:#000000;stroke-width:1pt;stroke-opacity:1;fill:#000000;fill-opacity:1"
         d="M 0.0,0.0 L 5.0,-5.0 L -12.5,0.0 L 5.0,5.0 L 0.0,0.0 z "
         id="path15165" />
    </marker>
    <marker
       inkscape:stockid="Arrow1Lend"
       orient="auto"
       refY="0.0"
       refX="0.0"
       id="marker14893"
       style="overflow:visible;"
       inkscape:isstock="true"
       inkscape:collect="always">
      <path
         id="path14891"
         d="M 0.0,0.0 L 5.0,-5.0 L -12.5,0.0 L 5.0,5.0 L 0.0,0.0 z "
         style="fill-rule:evenodd;stroke:#000000;stroke-width:1pt;stroke-opacity:1;fill:#000000;fill-opacity:1"
         transform="scale(0.8) rotate(180) translate(12.5,0)" />
    </marker>
    <marker
       inkscape:stockid="Arrow1Lend"
       orient="auto"
       refY="0.0"
       refX="0.0"
       id="marker14275"
       style="overflow:visible;"
       inkscape:isstock="true">
      <path
         id="path14273"
         d="M 0.0,0.0 L 5.0,-5.0 L -12.5,0.0 L 5.0,5.0 L 0.0,0.0 z "
         style="fill-rule:evenodd;stroke:#000000;stroke-width:1pt;stroke-opacity:1;fill:#000000;fill-opacity:1"
         transform="scale(0.8) rotate(180) translate(12.5,0)" />
    </marker>
    <marker
       inkscape:stockid="Arrow1Mstart"
       orient="auto"
       refY="0.0"
       refX="0.0"
       id="Arrow1Mstart"
       style="overflow:visible"
       inkscape:isstock="true">
      <path
         id="path12797"
         d="M 0.0,0.0 L 5.0,-5.0 L -12.5,0.0 L 5.0,5.0 L 0.0,0.0 z "
         style="fill-rule:evenodd;stroke:#a51d1e;stroke-width:1pt;stroke-opacity:1;fill:#a51d1e;fill-opacity:1"
         transform="scale(0.4) translate(10,0)" />
    </marker>
    <marker
       inkscape:isstock="true"
       style="overflow:visible;"
       id="marker13797"
       refX="0.0"
       refY="0.0"
       orient="auto"
       inkscape:stockid="Arrow1Mend">
      <path
         transform="scale(0.4) rotate(180) translate(10,0)"
         style="fill-rule:evenodd;stroke:#a51d1e;stroke-width:1pt;stroke-opacity:1;fill:#a51d1e;fill-opacity:1"
         d="M 0.0,0.0 L 5.0,-5.0 L -12.5,0.0 L 5.0,5.0 L 0.0,0.0 z "
         id="path13795" />
    </marker>
    <marker
       inkscape:isstock="true"
       style="overflow:visible"
       id="marker13739"
       refX="0.0"
       refY="0.0"
       orient="auto"
       inkscape:stockid="Arrow2Mstart">
      <path
         transform="scale(0.6) translate(0,0)"
         d="M 8.7185878,4.0337352 L -2.2072895,0.016013256 L 8.7185884,-4.0017078 C 6.9730900,-1.6296469 6.9831476,1.6157441 8.7185878,4.0337352 z "
         style="fill-rule:evenodd;stroke-width:0.625;stroke-linejoin:round;stroke:#a51d1e;stroke-opacity:1;fill:#a51d1e;fill-opacity:1"
         id="path13737" />
    </marker>
    <marker
       inkscape:stockid="Arrow1Lstart"
       orient="auto"
       refY="0.0"
       refX="0.0"
       id="marker13193"
       style="overflow:visible"
       inkscape:isstock="true"
       inkscape:collect="always">
      <path
         id="path13191"
         d="M 0.0,0.0 L 5.0,-5.0 L -12.5,0.0 L 5.0,5.0 L 0.0,0.0 z "
         style="fill-rule:evenodd;stroke:#a51d1e;stroke-width:1pt;stroke-opacity:1;fill:#a51d1e;fill-opacity:1"
         transform="scale(0.8) translate(12.5,0)" />
    </marker>
    <marker
       inkscape:stockid="Arrow1Lstart"
       orient="auto"
       refY="0.0"
       refX="0.0"
       id="marker13149"
       style="overflow:visible"
       inkscape:isstock="true">
      <path
         id="path13147"
         d="M 0.0,0.0 L 5.0,-5.0 L -12.5,0.0 L 5.0,5.0 L 0.0,0.0 z "
         style="fill-rule:evenodd;stroke:#3a7c0e;stroke-width:1pt;stroke-opacity:1;fill:#3a7c0e;fill-opacity:1"
         transform="scale(0.8) translate(12.5,0)" />
    </marker>
    <marker
       inkscape:stockid="Arrow1Lstart"
       orient="auto"
       refY="0.0"
       refX="0.0"
       id="Arrow1Lstart"
       style="overflow:visible"
       inkscape:isstock="true">
      <path
         id="path12791"
         d="M 0.0,0.0 L 5.0,-5.0 L -12.5,0.0 L 5.0,5.0 L 0.0,0.0 z "
         style="fill-rule:evenodd;stroke:#a51d1e;stroke-width:1pt;stroke-opacity:1;fill:#a51d1e;fill-opacity:1"
         transform="scale(0.8) translate(12.5,0)" />
    </marker>
    <marker
       inkscape:stockid="Arrow1Lend"
       orient="auto"
       refY="0.0"
       refX="0.0"
       id="marker13095"
       style="overflow:visible;"
       inkscape:isstock="true">
      <path
         id="path13093"
         d="M 0.0,0.0 L 5.0,-5.0 L -12.5,0.0 L 5.0,5.0 L 0.0,0.0 z "
         style="fill-rule:evenodd;stroke:#3a7c0e;stroke-width:1pt;stroke-opacity:1;fill:#3a7c0e;fill-opacity:1"
         transform="scale(0.8) rotate(180) translate(12.5,0)" />
    </marker>
    <marker
       inkscape:stockid="Arrow1Lend"
       orient="auto"
       refY="0.0"
       refX="0.0"
       id="marker13069"
       style="overflow:visible;"
       inkscape:isstock="true">
      <path
         id="path13067"
         d="M 0.0,0.0 L 5.0,-5.0 L -12.5,0.0 L 5.0,5.0 L 0.0,0.0 z "
         style="fill-rule:evenodd;stroke:#2b5d0a;stroke-width:1pt;stroke-opacity:1;fill:#2b5d0a;fill-opacity:1"
         transform="scale(0.8) rotate(180) translate(12.5,0)" />
    </marker>
    <marker
       inkscape:stockid="Arrow1Lend"
       orient="auto"
       refY="0.0"
       refX="0.0"
       id="Arrow1Lend"
       style="overflow:visible;"
       inkscape:isstock="true">
      <path
         id="path12794"
         d="M 0.0,0.0 L 5.0,-5.0 L -12.5,0.0 L 5.0,5.0 L 0.0,0.0 z "
         style="fill-rule:evenodd;stroke:#2b5d0a;stroke-width:1pt;stroke-opacity:1;fill:#2b5d0a;fill-opacity:1"
         transform="scale(0.8) rotate(180) translate(12.5,0)" />
    </marker>
  </defs>
  <metadata
     id="metadata5">
    <rdf:RDF>
      <cc:Work
         rdf:about="">
        <dc:format>image/svg+xml</dc:format>
        <dc:type
           rdf:resource="http://purl.org/dc/dcmitype/StillImage" />
        <dc:title></dc:title>
      </cc:Work>
    </rdf:RDF>
  </metadata>
  <g
     id="layer1"
     inkscape:groupmode="layer"
     inkscape:label="Layer 1">
    <g
       id="g12784"
       transform="matrix(0.88280558,0,0,0.8771886,15.522748,15.796203)">
      <circle
         style="fill:#8aa678;fill-opacity:1;stroke:#3a7c0e;stroke-width:0.15000001;stroke-miterlimit:4;stroke-dasharray:none;stroke-dashoffset:0;stroke-opacity:1"
         id="circle12564"
         cx="107.88285"
         cy="34.010265"
         r="5.4732647" />
      <circle
         transform="rotate(15)"
         style="fill:#8aa678;fill-opacity:1;stroke:#3a7c0e;stroke-width:0.15000001;stroke-miterlimit:4;stroke-dasharray:none;stroke-dashoffset:0;stroke-opacity:1"
         id="circle12570"
         cx="131.18631"
         cy="2.5362101"
         r="5.4732647" />
      <circle
         transform="rotate(30)"
         style="fill:#8aa678;fill-opacity:1;stroke:#3a7c0e;stroke-width:0.15000001;stroke-miterlimit:4;stroke-dasharray:none;stroke-dashoffset:0;stroke-opacity:1"
         id="circle12576"
         cx="145.54964"
         cy="-33.896729"
         r="5.4732647" />
      <circle
         transform="rotate(45)"
         style="fill:#8aa678;fill-opacity:1;stroke:#3a7c0e;stroke-width:0.15000001;stroke-miterlimit:4;stroke-dasharray:none;stroke-dashoffset:0;stroke-opacity:1"
         id="circle12582"
         cx="149.99397"
         cy="-72.805794"
         r="5.4732647" />
      <circle
         transform="rotate(60)"
         style="fill:#8aa678;fill-opacity:1;stroke:#3a7c0e;stroke-width:0.15000001;stroke-miterlimit:4;stroke-dasharray:none;stroke-dashoffset:0;stroke-opacity:1"
         id="circle12588"
         cx="144.21646"
         cy="-111.53934"
         r="5.4732647" />
      <circle
         transform="rotate(75)"
         style="fill:#8aa678;fill-opacity:1;stroke:#3a7c0e;stroke-width:0.15000001;stroke-miterlimit:4;stroke-dasharray:none;stroke-dashoffset:0;stroke-opacity:1"
         id="circle12594"
         cx="128.6109"
         cy="-147.45773"
         r="5.4732647" />
      <circle
         transform="rotate(90)"
         style="fill:#8aa678;fill-opacity:1;stroke:#3a7c0e;stroke-width:0.15000001;stroke-miterlimit:4;stroke-dasharray:none;stroke-dashoffset:0;stroke-opacity:1"
         id="circle12600"
         cx="104.2407"
         cy="-178.11322"
         r="5.4732647" />
      <circle
         transform="rotate(105)"
         style="fill:#8aa678;fill-opacity:1;stroke:#3a7c0e;stroke-width:0.15000001;stroke-miterlimit:4;stroke-dasharray:none;stroke-dashoffset:0;stroke-opacity:1"
         id="circle12606"
         cx="72.766624"
         cy="-201.41669"
         r="5.4732647" />
      <circle
         transform="rotate(120)"
         style="fill:#8aa678;fill-opacity:1;stroke:#3a7c0e;stroke-width:0.15000001;stroke-miterlimit:4;stroke-dasharray:none;stroke-dashoffset:0;stroke-opacity:1"
         id="circle12612"
         cx="36.333611"
         cy="-215.77998"
         r="5.4732647" />
      <circle
         transform="rotate(135)"
         style="fill:#8aa678;fill-opacity:1;stroke:#3a7c0e;stroke-width:0.15000001;stroke-miterlimit:4;stroke-dasharray:none;stroke-dashoffset:0;stroke-opacity:1"
         id="circle12618"
         cx="-2.5753815"
         cy="-220.22432"
         r="5.4732647" />
      <circle
         transform="rotate(150)"
         style="fill:#8aa678;fill-opacity:1;stroke:#3a7c0e;stroke-width:0.15000001;stroke-miterlimit:4;stroke-dasharray:none;stroke-dashoffset:0;stroke-opacity:1"
         id="circle12624"
         cx="-41.308956"
         cy="-214.44684"
         r="5.4732647" />
      <circle
         transform="rotate(165)"
         style="fill:#8aa678;fill-opacity:1;stroke:#3a7c0e;stroke-width:0.15000001;stroke-miterlimit:4;stroke-dasharray:none;stroke-dashoffset:0;stroke-opacity:1"
         id="circle12630"
         cx="-77.227394"
         cy="-198.84125"
         r="5.4732647" />
      <circle
         transform="scale(-1)"
         style="fill:#8aa678;fill-opacity:1;stroke:#3a7c0e;stroke-width:0.15000001;stroke-miterlimit:4;stroke-dasharray:none;stroke-dashoffset:0;stroke-opacity:1"
         id="circle12636"
         cx="-107.88285"
         cy="-174.47104"
         r="5.4732647" />
      <circle
         transform="rotate(-165)"
         style="fill:#8aa678;fill-opacity:1;stroke:#3a7c0e;stroke-width:0.15000001;stroke-miterlimit:4;stroke-dasharray:none;stroke-dashoffset:0;stroke-opacity:1"
         id="circle12642"
         cx="-131.18631"
         cy="-142.99698"
         r="5.4732647" />
      <circle
         transform="rotate(-150)"
         style="fill:#8aa678;fill-opacity:1;stroke:#3a7c0e;stroke-width:0.15000001;stroke-miterlimit:4;stroke-dasharray:none;stroke-dashoffset:0;stroke-opacity:1"
         id="circle12648"
         cx="-145.54964"
         cy="-106.56403"
         r="5.4732647" />
      <circle
         transform="rotate(-135)"
         style="fill:#8aa678;fill-opacity:1;stroke:#3a7c0e;stroke-width:0.15000001;stroke-miterlimit:4;stroke-dasharray:none;stroke-dashoffset:0;stroke-opacity:1"
         id="circle12654"
         cx="-149.99397"
         cy="-67.654968"
         r="5.4732647" />
      <circle
         transform="rotate(-120)"
         style="fill:#8aa678;fill-opacity:1;stroke:#3a7c0e;stroke-width:0.15000001;stroke-miterlimit:4;stroke-dasharray:none;stroke-dashoffset:0;stroke-opacity:1"
         id="circle12660"
         cx="-144.21646"
         cy="-28.921387"
         r="5.4732647" />
      <circle
         transform="rotate(-105)"
         style="fill:#8aa678;fill-opacity:1;stroke:#3a7c0e;stroke-width:0.15000001;stroke-miterlimit:4;stroke-dasharray:none;stroke-dashoffset:0;stroke-opacity:1"
         id="circle12666"
         cx="-128.6109"
         cy="6.9969778"
         r="5.4732647" />
      <circle
         transform="rotate(-90)"
         style="fill:#8aa678;fill-opacity:1;stroke:#3a7c0e;stroke-width:0.15000001;stroke-miterlimit:4;stroke-dasharray:none;stroke-dashoffset:0;stroke-opacity:1"
         id="circle12672"
         cx="-104.2407"
         cy="37.652481"
         r="5.4732647" />
      <circle
         transform="rotate(-75)"
         style="fill:#8aa678;fill-opacity:1;stroke:#3a7c0e;stroke-width:0.15000001;stroke-miterlimit:4;stroke-dasharray:none;stroke-dashoffset:0;stroke-opacity:1"
         id="circle12678"
         cx="-72.766624"
         cy="60.955933"
         r="5.4732647" />
      <circle
         transform="rotate(-60)"
         style="fill:#8aa678;fill-opacity:1;stroke:#3a7c0e;stroke-width:0.15000001;stroke-miterlimit:4;stroke-dasharray:none;stroke-dashoffset:0;stroke-opacity:1"
         id="circle12684"
         cx="-36.333611"
         cy="75.319252"
         r="5.4732647" />
      <circle
         transform="rotate(-45)"
         style="fill:#8aa678;fill-opacity:1;stroke:#3a7c0e;stroke-width:0.15000001;stroke-miterlimit:4;stroke-dasharray:none;stroke-dashoffset:0;stroke-opacity:1"
         id="circle12690"
         cx="2.5753815"
         cy="79.763626"
         r="5.4732647" />
      <circle
         transform="rotate(-30)"
         style="fill:#8aa678;fill-opacity:1;stroke:#3a7c0e;stroke-width:0.15000001;stroke-miterlimit:4;stroke-dasharray:none;stroke-dashoffset:0;stroke-opacity:1"
         id="circle12696"
         cx="41.308956"
         cy="73.986137"
         r="5.4732647" />
      <circle
         transform="rotate(-15)"
         style="fill:#8aa678;fill-opacity:1;stroke:#3a7c0e;stroke-width:0.15000001;stroke-miterlimit:4;stroke-dasharray:none;stroke-dashoffset:0;stroke-opacity:1"
         id="circle12702"
         cx="77.227394"
         cy="58.380516"
         r="5.4732647" />
    </g>
    <path
       style="fill:none;fill-opacity:1;stroke:#a51d1e;stroke-width:0.5;stroke-miterlimit:4;stroke-dasharray:none;stroke-dashoffset:0;stroke-opacity:1;marker-start:url(#marker13193);marker-mid:url(#Arrow1Mstart)"
       d="m 159.37952,52.948084 c 3.29193,3.29193 9.10472,9.732639 11.71997,13.603715 2.61525,3.871077 4.86777,8.007344 6.70881,12.360034 1.84103,4.352691 3.27057,8.921804 4.23985,13.658574 0.96929,4.736769 1.47831,9.641193 1.47831,14.664513 0,5.02331 -0.50902,9.92774 -1.47831,14.66451 -0.96928,4.73676 -2.39882,9.30588 -4.23985,13.65857 -1.84104,4.35268 -4.09356,8.48896 -6.70881,12.36003 -2.61525,3.87108 -5.59322,7.47697 -8.88515,10.76889 -3.29193,3.29193 -6.89782,6.2699 -10.7689,8.88515 -3.87107,2.61525 -8.00733,4.86777 -12.36003,6.7088 -4.35269,1.84104 -8.9218,3.27058 -13.65857,4.23986 -4.73677,0.96928 -9.6412,1.47831 -14.66451,1.47831 -5.02331,0 -9.92774,-0.50903 -14.664508,-1.47831 -4.736769,-0.96929 -9.305882,-2.39882 -13.658572,-4.23986 -4.352689,-1.84103 -8.488956,-4.09356 -12.360033,-6.7088 -3.871076,-2.61525 -7.476962,-5.59322 -10.768891,-8.88515 -3.29193,-3.29193 -6.269901,-6.89781 -8.88515,-10.76889 -2.615248,-3.87108 -4.867771,-8.00735 -6.708804,-12.36003 -1.841032,-4.35269 -3.270574,-8.92181 -4.239858,-13.65857 -0.969283,-4.73677 -1.478309,-9.6412 -1.478309,-14.66451"
       id="path12786" />
    <path
       id="path12789"
       d="m 37.998205,107.23492 c 0,-5.02332 0.509024,-9.927744 1.478308,-14.664513 0.969282,-4.736769 2.398824,-9.305883 4.239856,-13.658573 1.841033,-4.35269 4.093556,-8.488957 6.708804,-12.360034 2.615248,-3.871076 5.59322,-7.476963 8.88515,-10.768892 3.291929,-3.29193 6.897815,-6.269902 10.768892,-8.88515 3.871076,-2.615248 8.007343,-4.867772 12.360033,-6.708805 4.35269,-1.841032 8.921803,-3.270574 13.658572,-4.239857 4.73677,-0.969284 9.6412,-1.478309 14.66451,-1.478309 5.02331,0 9.92774,0.509025 14.66451,1.478308 4.73677,0.969283 9.19334,2.691615 13.65857,4.239857 1.02245,0.354517 8.385,4.406565 9.80871,5.149653"
       style="fill:none;fill-opacity:1;stroke:#2b5d0a;stroke-width:0.5;stroke-miterlimit:4;stroke-dasharray:none;stroke-dashoffset:0;stroke-opacity:1;marker-end:url(#marker13069);marker-mid:url(#marker21654)" />
    <text
       xml:space="preserve"
       style="font-style:normal;font-weight:normal;font-size:5.82083368px;line-height:1.25;font-family:sans-serif;letter-spacing:0px;word-spacing:0px;fill:#000000;fill-opacity:1;stroke:none;stroke-width:0.1984375"
       x="154.05324"
       y="48.144657"
       id="text14001"><tspan
         sodipodi:role="line"
         id="tspan13999"
         x="154.05324"
         y="48.144657"
         style="font-size:5.82083368px;stroke-width:0.1984375">Meeting point</tspan></text>
    <text
       id="text14005"
       y="97.195969"
       x="35.960602"
       style="font-style:normal;font-weight:normal;font-size:5.82083368px;line-height:1.25;font-family:sans-serif;text-align:end;letter-spacing:0px;word-spacing:0px;text-anchor:end;fill:#000000;fill-opacity:1;stroke:none;stroke-width:0.1984375"
       xml:space="preserve"><tspan
         style="font-size:5.82083368px;text-align:end;text-anchor:end;stroke-width:0.1984375"
         y="97.195969"
         x="37.813717"
         id="tspan14003"
         sodipodi:role="line">Initial </tspan><tspan
         style="font-size:5.82083368px;text-align:end;text-anchor:end;stroke-width:0.1984375"
         y="104.47201"
         x="35.960602"
         sodipodi:role="line"
         id="tspan14007">population</tspan></text>
    <flowRoot
       xml:space="preserve"
       id="flowRoot14009"
       style="fill:black;fill-opacity:1;stroke:none;font-family:sans-serif;font-style:normal;font-weight:normal;font-size:40px;line-height:1.25;letter-spacing:0px;word-spacing:0px"><flowRegion
         id="flowRegion14011"><rect
           id="rect14013"
           width="1374.2858"
           height="1018.5714"
           x="-417.14285"
           y="-184.6232" /></flowRegion><flowPara
         id="flowPara14015" /></flowRoot>    <path
       style="fill:none;stroke:#000000;stroke-width:0.26458332px;stroke-linecap:butt;stroke-linejoin:miter;stroke-opacity:1;marker-end:url(#marker14893)"
       d="M 11.249639,107.27777 H 37.842956"
       id="path14017"
       inkscape:connector-curvature="0" />
    <text
       xml:space="preserve"
       style="font-style:normal;font-weight:normal;font-size:5.82083368px;line-height:1.25;font-family:sans-serif;text-align:end;letter-spacing:0px;word-spacing:0px;text-anchor:end;fill:#000000;fill-opacity:1;stroke:none;stroke-width:0.1984375"
       x="116.46952"
       y="69.792694"
       id="text14123"><tspan
         id="tspan14121"
         sodipodi:role="line"
         x="116.46952"
         y="69.792694"
         style="font-size:5.82083368px;text-align:end;text-anchor:end;stroke-width:0.1984375">Patch</tspan></text>
    <path
       inkscape:connector-curvature="0"
       id="path14125"
       d="M 97.964376,65.915275 84.226813,57.385106"
       style="fill:none;stroke:#000000;stroke-width:0.15411095px;stroke-linecap:butt;stroke-linejoin:miter;stroke-opacity:1;marker-end:url(#marker14129)" />
    <path
       style="fill:none;stroke:#000000;stroke-width:0.5;stroke-linecap:butt;stroke-linejoin:miter;stroke-miterlimit:4;stroke-dasharray:none;stroke-opacity:1;marker-end:url(#marker15223)"
       d="m 116.1954,65.940636 8.11562,-12.657271"
       id="path14271"
       inkscape:connector-curvature="0" />
    <path
       style="fill:none;stroke:#000000;stroke-width:0.5;stroke-linecap:butt;stroke-linejoin:miter;stroke-miterlimit:4;stroke-dasharray:none;stroke-opacity:1;marker-end:url(#marker15177)"
       d="M 99.287293,66.860215 85.54973,58.330046"
       id="path14627"
       inkscape:connector-curvature="0" />
    <path
       inkscape:connector-curvature="0"
       id="path14673"
       d="M 103.19829,64.411925 97.395404,53.411015"
       style="fill:none;stroke:#000000;stroke-width:0.44900522;stroke-linecap:butt;stroke-linejoin:miter;stroke-miterlimit:4;stroke-dasharray:none;stroke-opacity:1;marker-end:url(#marker15167)" />
    <path
       style="fill:none;stroke:#000000;stroke-width:0.5;stroke-linecap:butt;stroke-linejoin:miter;stroke-miterlimit:4;stroke-dasharray:none;stroke-opacity:1;marker-end:url(#marker21806)"
       d="m 110.03806,65.68513 -0.0385,-13.603404"
       id="path14889"
       inkscape:connector-curvature="0"
       inkscape:transform-center-x="3.4160537"
       inkscape:transform-center-y="0.53832854" />
    <g
       aria-label="Migration"
       style="font-style:normal;font-weight:normal;font-size:40px;line-height:1.25;font-family:sans-serif;letter-spacing:0px;word-spacing:0px;fill:#000000;fill-opacity:1;stroke:none"
       id="g3959">
      <path
         d="M62.8046111689 175.45069741C62.8046111689 175.45069741 62.1074832016 174.954958966 62.1074832016 174.954958966C62.1074832016 174.954958966 62.8983947482 171.974367525 62.8983947482 171.974367525C62.8983947482 171.974367525 59.9555084107 173.35747625 59.9555084107 173.35747625C59.9555084107 173.35747625 59.2829181123 172.828924355 59.2829181123 172.828924355C59.2829181123 172.828924355 61.9046043265 169.492788909 61.9046043265 169.492788909C61.9046043265 169.492788909 62.3448045579 169.838718173 62.3448045579 169.838718173C62.3448045579 169.838718173 60.0427064782 172.768172873 60.0427064782 172.768172873C60.0427064782 172.768172873 62.7011261376 171.15608031 62.7011261376 171.15608031C62.7011261376 171.15608031 63.4452384193 171.70066537 63.4452384193 171.70066537C63.4452384193 171.70066537 62.6504149304 174.706373588 62.6504149304 174.706373588C62.6504149304 174.706373588 64.8095946263 171.670045521 64.8095946263 171.670045521C64.8095946263 171.670045521 65.263538394 171.992851932 65.263538394 171.992851932C65.263538394 171.992851932 62.8046111689 175.45069741 62.8046111689 175.45069741"
         style="font-size:22px;fill:#a51d1e"
         id="path19098" />
      <path
         d="M59.0574996866 171.303591686C59.0574996866 171.303591686 58.6463481096 170.980490169 58.6463481096 170.980490169C58.6463481096 170.980490169 60.6130524947 168.477829029 60.6130524947 168.477829029C60.6130524947 168.477829029 61.0242040717 168.800930545 61.0242040717 168.800930545C61.0242040717 168.800930545 59.0574996866 171.303591686 59.0574996866 171.303591686M58.2918903783 172.277841135C58.2918903783 172.277841135 57.8807388013 171.954739619 57.8807388013 171.954739619C57.8807388013 171.954739619 58.2898836037 171.434096656 58.2898836037 171.434096656C58.2898836037 171.434096656 58.7010351807 171.757198172 58.7010351807 171.757198172C58.7010351807 171.757198172 58.2918903783 172.277841135 58.2918903783 172.277841135"
         style="font-size:22px;fill:#a51d1e"
         id="path19100" />
      <path
         sodipodi:nodetypes="ccscscscccccsccccscsccssscssccc"
         inkscape:connector-curvature="0"
         d="m 56.899903,167.4324 c -0.248097,0.28641 -0.380941,0.55986 -0.398533,0.82034 -0.01902,0.25925 0.07815,0.48129 0.291529,0.66612 0.211945,0.18359 0.445574,0.2481 0.700888,0.19354 0.253881,-0.0558 0.50487,-0.22692 0.752967,-0.51333 0.246855,-0.28498 0.379795,-0.55709 0.398819,-0.81634 0.01759,-0.26049 -0.07958,-0.48252 -0.291528,-0.66612 -0.213376,-0.18483 -0.447006,-0.24934 -0.700889,-0.19353 -0.255314,0.0546 -0.506398,0.22434 -0.753253,0.50932 v 0 m 0.543528,-1.19557 c 0.373908,-0.39218 0.611501,-0.64737 0.9658,-0.68888 0.355538,-0.043 0.687498,0.0313 1.062697,0.35627 0.13891,0.12032 0.26064,0.24457 0.36519,0.37273 0.10579,0.12673 0.198077,0.26182 0.27686,0.40526 l -0.333071,0.3845 c -0.06141,-0.16349 -0.135664,-0.30927 -0.222746,-0.43734 -0.08708,-0.12807 -0.189339,-0.24296 -0.306768,-0.34468 -0.259202,-0.22453 -0.512169,-0.32459 -0.7589,-0.30019 -0.24549,0.023 -0.486701,0.17122 -0.723634,0.44474 l -0.169325,0.19548 c 0.204435,-0.0711 0.400771,-0.0865 0.589008,-0.0463 0.188236,0.0402 0.371142,0.13726 0.548717,0.29108 0.295004,0.25554 0.435349,0.57388 0.421033,0.95501 -0.01432,0.38113 -0.182116,0.75715 -0.503401,1.12806 -0.322526,0.37233 -0.671386,0.59277 -1.04658,0.6613 -0.375196,0.0685 -0.710296,-0.025 -1.0053,-0.28051 -0.177575,-0.15382 -0.299697,-0.32102 -0.366367,-0.50159 -0.06667,-0.18058 -0.07941,-0.3771 -0.03823,-0.58958 l -0.316323,0.36517 -0.47939,-0.35276"
         style="font-size:22px;fill:#a51d1e"
         id="path19102" />
      <path
         d="M53.3749513113 165.58420759C53.3939274769 165.649418901 53.423554244 165.711696205 53.4638316117 165.7710395C53.5014281993 165.830448978 53.5503942239 165.888915955 53.6107296856 165.946440429C53.8246465309 166.150391038 54.0558744258 166.23734129 54.3044133703 166.207291187C54.5502728786 166.177306112 54.7974029269 166.032044117 55.045803513 165.771505204C55.045803513 165.771505204 56.2028303723 164.557939148 56.2028303723 164.557939148C56.2028303723 164.557939148 56.5833554195 164.920735798 56.5833554195 164.920735798C56.5833554195 164.920735798 54.3869652327 167.224454641 54.3869652327 167.224454641C54.3869652327 167.224454641 54.0064401855 166.861657991 54.0064401855 166.861657991C54.0064401855 166.861657991 54.3476649757 166.503758933 54.3476649757 166.503758933C54.1347799283 166.567799406 53.9325429247 166.572622806 53.7409539644 166.518229133C53.5480577678 166.46520632 53.3604207949 166.351754464 53.1780430453 166.177873567C53.151989154 166.153033508 53.1251521071 166.123523426 53.0975319039 166.089343322C53.0686095874 166.056529216 53.0382185606 166.018391471 53.0063588226 165.974930089C53.0063588226 165.974930089 53.3749513113 165.58420759 53.3749513113 165.58420759"
         style="font-size:22px;fill:#a51d1e"
         id="path19104" />
      <path
         sodipodi:nodetypes="csscscscccccccscscscscsccccsccc"
         inkscape:connector-curvature="0"
         d="m 52.464198,163.09035 c 0.291545,0.30579 0.528501,0.48431 0.71087,0.53556 0.182368,0.0512 0.357885,-0.004 0.52655,-0.16433 0.134385,-0.12812 0.199507,-0.27398 0.195367,-0.43757 -0.0068,-0.16365 -0.08278,-0.32158 -0.227903,-0.47379 -0.200028,-0.2098 -0.43423,-0.30719 -0.702605,-0.29214 -0.271054,0.015 -0.529994,0.14012 -0.776821,0.37545 l -0.08433,0.0804 0.358874,0.37642 m -0.876034,-0.60584 1.314354,-1.25312 0.360835,0.37847 -0.349671,0.33338 c 0.222233,-0.047 0.428392,-0.038 0.618478,0.0268 0.188714,0.0661 0.371973,0.19246 0.549776,0.37895 0.224868,0.23586 0.338158,0.48648 0.339869,0.75185 -9.68e-4,0.26532 -0.05614,0.53624 -0.267932,0.75839 -0.247094,0.25916 -0.603673,0.30428 -0.900043,0.25701 -0.297678,-0.0486 -0.610592,-0.24506 -0.938743,-0.58924 l -0.505955,-0.53068 -0.03702,0.0353 c -0.17415,0.16603 -0.253624,0.35175 -0.238422,0.55714 0.01252,0.20534 0.117492,0.41153 0.314905,0.61859 0.125508,0.13164 0.263518,0.24482 0.414028,0.33954 0.150511,0.0947 0.312215,0.16959 0.485113,0.22464 l -0.349673,0.33338 c -0.185524,-0.0875 -0.353413,-0.18398 -0.503667,-0.28941 -0.151627,-0.10412 -0.286272,-0.21789 -0.403936,-0.3413 -0.317692,-0.33322 -0.468591,-0.66447 -0.452696,-0.99375 0.01589,-0.32928 0.199361,-0.66126 0.550404,-0.99595 v 0"
         style="font-size:22px;fill:#a51d1e"
         id="path19106" />
      <path
         d="M48.5304972033 162.503390976C48.5304972033 162.503390976 49.2135879085 161.911682238 49.2135879085 161.911682238C49.2135879085 161.911682238 48.5083743157 161.097557282 48.5083743157 161.097557282C48.5083743157 161.097557282 48.815552268 160.831472738 48.815552268 160.831472738C48.815552268 160.831472738 49.5207658607 161.645597694 49.5207658607 161.645597694C49.5207658607 161.645597694 50.8268030695 160.514278496 50.8268030695 160.514278496C51.022993771 160.344333639 51.1260657173 160.208678531 51.1360189076 160.107313175C51.1447314069 160.004515518 51.0777599984 159.870773373 50.9351046819 159.706086738C50.9351046819 159.706086738 50.5834282306 159.300098285 50.5834282306 159.300098285C50.5834282306 159.300098285 50.9142323331 159.013548232 50.9142323331 159.013548232C50.9142323331 159.013548232 51.2659087845 159.419536685 51.2659087845 159.419536685C51.5301313677 159.72456512 51.6559160354 159.984076548 51.6432627867 160.198070969C51.6291764391 160.413306774 51.4717677639 160.6511747 51.1710367613 160.911674749C51.1710367613 160.911674749 49.8649995526 162.042993947 49.8649995526 162.042993947C49.8649995526 162.042993947 50.4183588428 162.649577889 50.4183588428 162.649577889C50.4183588428 162.649577889 50.1242219597 162.930011189 50.1242219597 162.930011189C50.1242219597 162.930011189 49.5578216003 162.309078491 49.5578216003 162.309078491C49.5578216003 162.309078491 48.8747308951 162.900787229 48.8747308951 162.900787229C48.8747308951 162.900787229 48.5304972033 162.503390976 48.5304972033 162.503390976"
         style="font-size:22px;fill:#a51d1e"
         id="path19108" />
      <path
         d="M48.0562190513 160.575572328C48.0562190513 160.575572328 47.713846569 160.180324725 47.713846569 160.180324725C47.713846569 160.180324725 50.1197045864 158.096315675 50.1197045864 158.096315675C50.1197045864 158.096315675 50.4620770687 158.491563278 50.4620770687 158.491563278C50.4620770687 158.491563278 48.0562190513 160.575572328 48.0562190513 160.575572328M47.1196536445 161.38684663C47.1196536445 161.38684663 46.7772811622 160.991599027 46.7772811622 160.991599027C46.7772811622 160.991599027 47.2777856156 160.558050662 47.2777856156 160.558050662C47.2777856156 160.558050662 47.6201580979 160.953298265 47.6201580979 160.953298265C47.6201580979 160.953298265 47.1196536445 161.38684663 47.1196536445 161.38684663"
         style="font-size:22px;fill:#a51d1e"
         id="path19110" />
      <path
         d="M46.2554108466 157.788749875C46.4286677609 158.009221858 46.6520364166 158.1156157 46.9255168135 158.107931399C47.1975064474 158.101418607 47.4832140331 157.980511107 47.7826395716 157.745208897C48.0820651092 157.509906688 48.2684258355 157.261046006 48.341721751 156.998626849C48.412357871 156.735888736 48.3604622647 156.493539 48.1860349312 156.271577641C48.0139473463 156.052593646 47.7911645937 155.946943948 47.5176866741 155.954628545C47.244207664 155.962311756 46.9585000782 156.083219257 46.6605639161 156.317351047C46.3641171294 156.550312418 46.1798309883 156.798747369 46.107705492 157.062655901C46.0340881435 157.327734556 46.0833232617 157.56976588 46.2554108466 157.788749875C46.2554108466 157.788749875 46.2554108466 157.788749875 46.2554108466 157.788749875M45.9068262031 158.062683546C45.6258678371 157.705159874 45.5213934738 157.333043775 45.5934031123 156.946335252C45.6654141384 156.559625637 45.906995104 156.204720287 46.3181460097 155.881619201C46.7278075392 155.559688535 47.1297679349 155.408869807 47.5240271969 155.429163018C47.9167984701 155.450625557 48.2536632898 155.640118663 48.5346216557 155.997642335C48.8167493511 156.356653996 48.9218076858 156.729514633 48.8497966596 157.116224248C48.7751272256 157.502613816 48.5329617439 157.856773933 48.1233002145 158.178704599C47.7121493087 158.501805685 47.3107734292 158.653369645 46.919172575 158.633396482C46.5264026894 158.611932852 46.1889538985 158.421695207 45.9068262031 158.062683546C45.9068262031 158.062683546 45.9068262031 158.062683546 45.9068262031 158.062683546"
         style="font-size:22px;fill:#a51d1e"
         id="path19112" />
      <path
         d="M43.7754718047 152.914330483C43.7754718047 152.914330483 45.3411150406 151.800978217 45.3411150406 151.800978217C45.3411150406 151.800978217 45.6441572339 152.227129018 45.6441572339 152.227129018C45.6441572339 152.227129018 44.0924117194 153.330598407 44.0924117194 153.330598407C43.846911177 153.505177506 43.6972096712 153.683702275 43.6433072035 153.866172713C43.5894022764 154.048642735 43.6305245306 154.235607305 43.7666739662 154.427066423C43.9302734535 154.65712697 44.1326278684 154.786396343 44.3737372108 154.814874543C44.6148465532 154.843352743 44.862011495 154.76755739 45.1152320362 154.587488485C45.1152320362 154.587488485 46.581284277 153.544956861 46.581284277 153.544956861C46.581284277 153.544956861 46.8859731054 153.97342323 46.8859731054 153.97342323C46.8859731054 153.97342323 44.2920084274 155.818030218 44.2920084274 155.818030218C44.2920084274 155.818030218 43.987319599 155.389563849 43.987319599 155.389563849C43.987319599 155.389563849 44.3903104056 155.102991073 44.3903104056 155.102991073C44.1618965761 155.111980429 43.9602290659 155.075215801 43.7853078742 154.992697189C43.6092879035 154.908633428 43.4570463716 154.776276418 43.3285832776 154.59562616C43.1166722715 154.297627905 43.049009211 154.006320728 43.125594096 153.72170463C43.2006328103 153.438185873 43.4172587131 153.169061158 43.7754718047 152.914330483C43.7754718047 152.914330483 43.7754718047 152.914330483 43.7754718047 152.914330483"
         style="font-size:22px;fill:#a51d1e"
         id="path19114" />
    </g>
    <g
       aria-label="Migration"
       style="font-style:normal;font-weight:normal;font-size:40px;line-height:1.25;font-family:sans-serif;letter-spacing:0px;word-spacing:0px;fill:#2b5d0a;fill-opacity:1;stroke:none"
       id="g4237">
      <path
         d="M34.3996028861 73.700021685C34.3996028861 73.700021685 34.751990412 72.9205592392 34.751990412 72.9205592392C34.751990412 72.9205592392 37.8290440177 73.1233847328 37.8290440177 73.1233847328C37.8290440177 73.1233847328 35.8890058998 70.4835421409 35.8890058998 70.4835421409C35.8890058998 70.4835421409 36.2789549935 69.7221749766 36.2789549935 69.7221749766C36.2789549935 69.7221749766 40.0554352519 71.6563732496 40.0554352519 71.6563732496C40.0554352519 71.6563732496 39.8002194367 72.1546766041 39.8002194367 72.1546766041C39.8002194367 72.1546766041 36.4840987264 70.4562604832 36.4840987264 70.4562604832C36.4840987264 70.4562604832 38.4404757389 73.0816846903 38.4404757389 73.0816846903C38.4404757389 73.0816846903 38.2028190836 73.6073685588 38.2028190836 73.6073685588C38.2028190836 73.6073685588 35.1003653519 73.4055353764 35.1003653519 73.4055353764C35.1003653519 73.4055353764 38.4952997284 74.9403527777 38.4952997284 74.9403527777C38.4952997284 74.9403527777 38.2658380963 75.4479096911 38.2658380963 75.4479096911C38.2658380963 75.4479096911 34.3996028861 73.700021685 34.3996028861 73.700021685"
         style="font-size:22px;fill:#2b5d0a"
         id="path21421" />
      <path
         d="M37.7328731547 69.2087936564C37.7328731547 69.2087936564 37.9712473704 68.7433731604 37.9712473704 68.7433731604C37.9712473704 68.7433731604 40.8042409774 70.1943462801 40.8042409774 70.1943462801C40.8042409774 70.1943462801 40.5658667617 70.6597667761 40.5658667617 70.6597667761C40.5658667617 70.6597667761 37.7328731547 69.2087936564 37.7328731547 69.2087936564M36.6300300979 68.6439510013C36.6300300979 68.6439510013 36.8684043136 68.1785305054 36.8684043136 68.1785305054C36.8684043136 68.1785305054 37.4577682355 68.4803847723 37.4577682355 68.4803847723C37.4577682355 68.4803847723 37.2193940199 68.9458052683 37.2193940199 68.9458052683C37.2193940199 68.9458052683 36.6300300979 68.6439510013 36.6300300979 68.6439510013"
         style="font-size:22px;fill:#2b5d0a"
         id="path21423" />
      <path
         d="M41.1018024607 66.333937615C40.7733095029 66.145058244 40.4795352148 66.066838986 40.2204795956 66.0992798407C39.9623682677 66.1300784141 39.7629551172 66.2678411899 39.6222401441 66.5125681683C39.4824695502 66.7556527123 39.4637272646 66.99729889 39.5660132872 67.237506701C39.6692436891 67.4760720778 39.8851053685 67.6897944515 40.2135983263 67.8786738225C40.5404476269 68.066608111 40.8329278976 68.1451760452 41.0910391375 68.1143776248C41.3500962858 68.0819376493 41.5495101569 67.9441753895 41.6892807508 67.7010908454C41.8299957239 67.4563638671 41.848737289 67.2147171734 41.7455054459 66.9761507645C41.6432194233 66.7359429535 41.4286517613 66.5218719034 41.1018024607 66.333937615C41.1018024607 66.333937615 41.1018024607 66.333937615 41.1018024607 66.333937615M42.431699232 66.4954194655C42.9014427559 66.7655161577 43.1904970023 67.0704966767 43.2988619723 67.4103610227C43.4088675422 67.7511686933 43.3401544887 68.136735156 43.0927228115 68.5670604109C43.0011164397 68.7263792813 42.9023859851 68.8695817662 42.7965314478 68.9966678654C42.6923189508 69.1246983209 42.57732817 69.2410675922 42.4515591037 69.3457756783C42.4515591037 69.3457756783 42.0105558862 69.0922043053 42.0105558862 69.0922043053C42.1593208658 69.0007185837 42.2882531668 68.9000147589 42.3973527894 68.7900928307C42.5064508837 68.6801700238 42.5997201404 68.5578676711 42.6771605594 68.4231857725C42.8480961967 68.1258999821 42.8980446761 67.8584873533 42.8270059966 67.6209478856C42.7576109752 67.384353501 42.5660580928 67.175866418 42.2523473484 66.9954866361C42.2523473484 66.9954866361 42.0281509504 66.8665764917 42.0281509504 66.8665764917C42.1369247161 67.0536924059 42.1895265723 67.2434777277 42.185956522 67.4359324582C42.1823848538 67.628386462 42.1220464946 67.8264461437 42.0049414429 68.0301115023C41.8103958841 68.3684589125 41.5246931266 68.5669728153 41.1478331701 68.6256532109C40.7709731249 68.684333759 40.3698438973 68.5913746316 39.9444454864 68.3467758286C39.5174049473 68.1012328223 39.2344485538 67.8008512135 39.095576306 67.4456310021C38.9567024411 67.0904100644 38.984538288 66.7436258905 39.1790838467 66.4052784803C39.2961888984 66.2016131218 39.4370076045 66.04982864 39.6015399649 65.9499250352C39.7660722383 65.8500215838 39.9565550784 65.8000069435 40.1729884851 65.7998811144C40.1729884851 65.7998811144 39.7541608814 65.5590604439 39.7541608814 65.5590604439C39.7541608814 65.5590604439 40.0148141761 65.1057405749 40.0148141761 65.1057405749C40.0148141761 65.1057405749 42.431699232 66.4954194655 42.431699232 66.4954194655"
         style="font-size:22px;fill:#2b5d0a"
         id="path21425" />
      <path
         d="M42.2251538978 62.5042907822C42.1647455438 62.535329852 42.1092443856 62.5762665326 42.0586504224 62.6271008232C42.0074813337 62.6753159219 41.9594011254 62.734513313 41.9144097972 62.8046929967C41.7548949328 63.053512118 41.7135364326 63.2970607506 41.7903342967 63.5353388944C41.866558424 63.7709989462 42.0561944682 63.9859691238 42.3592424267 64.1802494257C42.3592424267 64.1802494257 43.770811671 65.0851890278 43.770811671 65.0851890278C43.770811671 65.0851890278 43.4870593503 65.5277998362 43.4870593503 65.5277998362C43.4870593503 65.5277998362 40.8074700122 63.8099482189 40.8074700122 63.8099482189C40.8074700122 63.8099482189 41.0912223329 63.3673374105 41.0912223329 63.3673374105C41.0912223329 63.3673374105 41.5075155376 63.6342178405 41.5075155376 63.6342178405C41.4041334429 63.4374103537 41.3609125003 63.2397873013 41.377852709 63.041348683C41.3931983442 62.8418875939 41.4688694584 62.6360899669 41.6048660507 62.4239558018C41.624294081 62.3936510059 41.648157751 62.361688662 41.67645706 62.3280687696C41.703167544 62.2934305105 41.7348248766 62.2563372948 41.771429057 62.216789122C41.771429057 62.216789122 42.2251538978 62.5042907822 42.2251538978 62.5042907822"
         style="font-size:22px;fill:#2b5d0a"
         id="path21427" />
      <path
         d="m 44.480218,61.118592 c -0.24485,0.344317 -0.564103,0.941597 -0.579784,1.13038 -0.01568,0.188784 0.0619,0.325883 0.258081,0.451654 0.15631,0.100209 0.381025,0.08344 0.540848,0.0483 0.159379,-0.03778 0.418124,-0.378593 0.54,-0.54998 0.167991,-0.236236 0.219116,-0.48467 0.153375,-0.745303 -0.06619,-0.263274 -0.238242,-0.49373 -0.516167,-0.691366 l -0.09496,-0.06753 -0.301396,0.423836 m 0.428418,-0.975157 1.47995,1.052414 -0.303042,0.426152 -0.393727,-0.279985 c 0.08832,0.209267 0.1187,0.413371 0.09115,0.612311 -0.0291,0.197842 -0.118307,0.401757 -0.267632,0.611744 -0.188853,0.265573 -0.625586,0.637018 -0.883003,0.701545 -0.257992,0.06191 -0.398063,0.01004 -0.656452,-0.155613 -0.301453,-0.193258 -0.535191,-0.392206 -0.559471,-0.691338 -0.02326,-0.300727 0.331186,-0.977983 0.60678,-1.365533 l 0.424918,-0.597539 -0.04169,-0.02965 c -0.196091,-0.139444 -0.393521,-0.182197 -0.592289,-0.128259 -0.199216,0.05129 -0.381721,0.193516 -0.547516,0.426664 -0.105406,0.148226 -0.190311,0.30522 -0.254715,0.47098 -0.0644,0.165761 -0.339491,0.705853 -0.352014,0.886869 l -0.406725,-0.260747 c 0.04107,-0.200972 0.350105,-0.769082 0.425077,-0.936626 0.07343,-0.168643 0.159549,-0.322446 0.258368,-0.461408 0.266809,-0.375199 0.563366,-0.586266 0.889672,-0.633204 0.326304,-0.04694 0.687092,0.07014 1.082362,0.351218 v 0"
         style="font-size:22px;fill:#2b5d0a"
         id="path21429"
         inkscape:connector-curvature="0"
         sodipodi:nodetypes="csscscscccccccscscscscsccccsccc" />
      <path
         d="m 44.194536,57.363612 0.663329,0.487533 0.665519,-0.846883 0.319537,0.251107 -0.665518,0.846883 c 0,0 0.871348,0.760502 1.358587,1.067639 0.144126,0.09085 0.3569,0.236516 0.458246,0.226376 0.102653,-0.01027 0.362928,-0.267449 0.497554,-0.438762 l 0.331881,-0.422324 0.344115,0.270421 -0.331882,0.422324 c -0.24935,0.317301 -0.617811,0.620623 -0.828725,0.658949 -0.212459,0.03723 -0.360896,-0.109241 -0.686937,-0.337268 l -1.408152,-1.001359 -0.222341,0.312666 -0.331196,-0.235518 0.222341,-0.312666 -0.736499,-0.523735 0.302894,-0.496253"
         style="font-size:22px;fill:#2b5d0a"
         id="path21431"
         inkscape:connector-curvature="0"
         sodipodi:nodetypes="cccccassccscscccccc" />
      <path
         d="M46.091828867 56.2959095296C46.091828867 56.2959095296 46.4149298766 55.8847585639 46.4149298766 55.8847585639C46.4149298766 55.8847585639 48.9175910937 57.8514628488 48.9175910937 57.8514628488C48.9175910937 57.8514628488 48.5944900841 58.2626138144 48.5944900841 58.2626138144C48.5944900841 58.2626138144 46.091828867 56.2959095296 46.091828867 56.2959095296M45.1175793876 55.5303002603C45.1175793876 55.5303002603 45.4406803971 55.1191492947 45.4406803971 55.1191492947C45.4406803971 55.1191492947 45.9613233759 55.5282940763 45.9613233759 55.5282940763C45.9613233759 55.5282940763 45.6382223663 55.9394450419 45.6382223663 55.9394450419C45.6382223663 55.9394450419 45.1175793876 55.5303002603 45.1175793876 55.5303002603"
         style="font-size:22px;fill:#2b5d0a"
         id="path21433" />
      <path
         d="m 48.465428,53.981778 c -0.183591,0.211945 -0.245668,0.451444 -0.186229,0.718497 0.058,0.265813 0.230929,0.523387 0.518773,0.772724 0.287844,0.249337 0.567545,0.38509 0.839105,0.40726 0.271368,0.0195 0.499468,-0.07744 0.684299,-0.290817 0.182351,-0.210514 0.243808,-0.449296 0.18437,-0.716348 -0.05944,-0.267052 -0.232361,-0.524627 -0.518773,-0.772723 -0.28498,-0.246857 -0.56387,-0.380654 -0.83667,-0.401392 -0.274232,-0.02198 -0.502524,0.07229 -0.684875,0.282799 v 0 m -0.335102,-0.290272 c 0.297716,-0.343695 0.643248,-0.516881 1.036595,-0.519558 0.393348,-0.0027 0.787646,0.167172 1.182894,0.509545 0.393816,0.341132 0.618167,0.707172 0.673054,1.098119 0.05346,0.389708 -0.06867,0.756409 -0.36639,1.100104 -0.298955,0.345125 -0.645107,0.519026 -1.038455,0.521702 -0.393538,5e-6 -0.738777,-0.156185 -1.148438,-0.478115 -0.411151,-0.323101 -0.652813,-0.741272 -0.70751,-1.129549 -0.05345,-0.389707 0.06929,-0.757123 0.36825,-1.102248 v 0"
         style="font-size:22px;fill:#2b5d0a"
         id="path21435"
         inkscape:connector-curvature="0"
         sodipodi:nodetypes="ccscscscccccscscsccc" />
      <path
         d="M52.759291081 50.6045784522C52.759291081 50.6045784522 54.1497501571 51.9302570815 54.1497501571 51.9302570815C54.1497501571 51.9302570815 53.7889150724 52.3087246885 53.7889150724 52.3087246885C53.7889150724 52.3087246885 52.4107986632 50.9948136905 52.4107986632 50.9948136905C52.1927678567 50.786940776 51.9890589199 50.6738725467 51.7996718541 50.655609004C51.6102847288 50.6373429677 51.4345339829 50.7132280629 51.2724196167 50.8832642896C51.077620225 51.0875827241 50.9891383294 51.3108067443 51.0069739295 51.5529363504C51.0248095297 51.7950659564 51.1461708264 52.0233355978 51.3710578196 52.2377452745C51.3710578196 52.2377452745 52.6730694129 53.479097123 52.6730694129 53.479097123C52.6730694129 53.479097123 52.3102736649 53.8596212029 52.3102736649 53.8596212029C52.3102736649 53.8596212029 50.0065548822 51.6632309526 50.0065548822 51.6632309526C50.0065548822 51.6632309526 50.3693506302 51.2827068727 50.3693506302 51.2827068727C50.3693506302 51.2827068727 50.7272496788 51.6239316727 50.7272496788 51.6239316727C50.6750398636 51.4013829407 50.6728312958 51.1964033348 50.7206239746 51.0089928545C50.7697249793 50.8202101157 50.8707565669 50.6456003466 51.0237187367 50.4851635465C51.2760430913 50.2205091414 51.5491960884 50.0987478945 51.8431777281 50.1198798056C52.1357883271 50.1397021152 52.4411594448 50.3012683306 52.759291081 50.6045784522C52.759291081 50.6045784522 52.759291081 50.6045784522 52.759291081 50.6045784522"
         style="font-size:22px;fill:#2b5d0a"
         id="path21437" />
    </g>
    <flowRoot
       xml:space="preserve"
       id="flowRoot21856"
       style="font-style:normal;font-weight:normal;font-size:13.33333397px;line-height:1.25;font-family:sans-serif;letter-spacing:0px;word-spacing:0px;fill:#000000;fill-opacity:1;stroke:none"
       transform="matrix(0.26458333,0,0,0.26458333,-5.078121,-1.0690781)"><flowRegion
         id="flowRegion21858"
         style="font-size:13.33333397px"><rect
           id="rect21860"
           width="230.19221"
           height="101.59829"
           x="45.456863"
           y="87.113297"
           style="font-size:13.33333397px" /></flowRegion><flowPara
         id="flowPara21862"
         style="font-size:18.66666603px">Due to random fluctuation, migration goes at different speed along the two pathes</flowPara></flowRoot>    <path
       inkscape:connector-curvature="0"
       id="path23367"
       d="m 145.23651,103.72469 -23.63592,36.5368"
       style="fill:none;stroke:#8d91d0;stroke-width:0.63177872px;stroke-linecap:butt;stroke-linejoin:miter;stroke-opacity:1;opacity:0.85"
       sodipodi:nodetypes="cc" />
    <path
       style="fill:none;stroke:#8d91d0;stroke-width:0.63177872px;stroke-linecap:butt;stroke-linejoin:miter;stroke-opacity:1;opacity:0.85"
       d="M 128.50209,77.618905 90.919728,135.71431"
       id="path23369"
       inkscape:connector-curvature="0"
       sodipodi:nodetypes="cc" />
    <path
       inkscape:connector-curvature="0"
       id="path23371"
       d="m 141.79545,91.7192 -32.4956,50.23221"
       style="fill:none;stroke:#8d91d0;stroke-width:0.63177872px;stroke-linecap:butt;stroke-linejoin:miter;stroke-opacity:1;opacity:0.85"
       sodipodi:nodetypes="cc" />
    <path
       inkscape:connector-curvature="0"
       id="path23377"
       d="M 109.34586,72.58151 78.5315,120.21483"
       style="fill:none;stroke:#8d91d0;stroke-width:0.63177872px;stroke-linecap:butt;stroke-linejoin:miter;stroke-opacity:1;opacity:0.85"
       sodipodi:nodetypes="cc" />
    <path
       style="fill:none;stroke:#8d91d0;stroke-width:0.63177872px;stroke-linecap:butt;stroke-linejoin:miter;stroke-opacity:1;opacity:0.85"
       d="M 135.94723,83.43473 99.373996,139.97022"
       id="path23379"
       inkscape:connector-curvature="0"
       sodipodi:nodetypes="cc" />
    <path
       style="fill:none;stroke:#8d91d0;stroke-width:0.63177872px;stroke-linecap:butt;stroke-linejoin:miter;stroke-opacity:1;opacity:0.85"
       d="M 119.78432,73.770297 83.696822,129.5549"
       id="path23381"
       inkscape:connector-curvature="0"
       sodipodi:nodetypes="cc" />
    <path
       inkscape:connector-curvature="0"
       id="path23383"
       d="M 95.989462,75.903365 76.095976,106.65503"
       style="fill:none;stroke:#8d91d0;stroke-width:0.63177872px;stroke-linecap:butt;stroke-linejoin:miter;stroke-opacity:1;opacity:0.85"
       sodipodi:nodetypes="cc" />
    <circle
       style="fill:none;fill-opacity:1;stroke:#3139ae;stroke-width:0.5;stroke-miterlimit:4;stroke-dasharray:none;stroke-dashoffset:0;stroke-opacity:1"
       id="path12758"
       cx="110.76233"
       cy="107.23492"
       r="34.675438" />
    <flowRoot
       xml:space="preserve"
       id="flowRoot14057"
       style="font-style:normal;font-weight:normal;font-size:40px;line-height:1.25;font-family:sans-serif;letter-spacing:0px;word-spacing:0px;fill:#000000;fill-opacity:1;stroke:none"
       transform="matrix(0.26458333,0,0,0.26458333,7.9050748,4.4597373)"><flowRegion
         id="flowRegion14059"><rect
           id="rect14061"
           width="207.14285"
           height="72.85714"
           x="320.71429"
           y="359.66251" /></flowRegion><flowPara
         id="flowPara14063"
         style="font-size:32px">Obstacle</flowPara></flowRoot>  </g>
</svg>
